<svg xmlns="http://www.w3.org/2000/svg" viewBox="0 0 719 727" width="719" height="727">
  <g transform="translate(0.000000,727.000000) scale(0.100000,-0.100000)" fill="#000000" stroke="none">
    <path d="M1830 6070 c-47 -4 -125 -18 -175 -30 -86 -22 -279 -106 -307 -133
-7 -7 -40 -31 -72 -53 -33 -21 -64 -42 -70 -46 -6 -4 -65 -21 -131 -37 -161
-40 -331 -101 -474 -170 -109 -52 -246 -171 -299 -261 -9 -15 -27 -44 -39 -64
-12 -19 -19 -37 -15 -40 4 -2 45 3 92 11 104 17 462 21 535 4 28 -6 75 -16
105 -22 102 -20 236 -105 290 -184 86 -125 80 -286 -21 -600 -91 -278 -107
-554 -49 -814 49 -220 167 -482 324 -716 114 -171 185 -265 303 -398 17 -20
35 -43 40 -51 17 -30 418 -466 611 -665 46 -47 95 -99 109 -116 14 -16 104
-111 200 -209 172 -177 173 -179 155 -200 -22 -25 -162 -194 -179 -216 -35
-45 -170 -207 -183 -220 -25 -25 -121 -147 -155 -198 -1 -1 -33 -9 -71 -17
-377 -78 -545 -130 -764 -238 -36 -18 -66 -35 -68 -39 -2 -5 -9 -8 -15 -8 -7
0 -21 -7 -31 -15 -18 -13 98 -15 975 -15 l994 0 -45 30 c-25 16 -49 30 -53 30
-5 0 -23 10 -40 23 -18 12 -41 27 -52 33 -11 6 -51 28 -90 48 -38 21 -95 53
-126 72 -31 19 -60 34 -64 34 -5 0 -37 16 -73 36 l-65 37 56 51 c67 61 291
274 391 371 40 39 116 110 169 159 l97 89 0 73 c0 51 4 74 12 74 7 0 38 -18
69 -40 32 -22 61 -40 65 -40 4 0 17 -8 28 -18 12 -10 82 -56 156 -102 74 -46
153 -97 174 -112 21 -15 45 -28 52 -28 7 0 14 -4 16 -8 2 -4 24 -20 50 -35 26
-15 53 -33 60 -41 8 -8 39 -28 69 -45 64 -38 89 -53 103 -64 10 -7 69 -45 191
-122 308 -195 355 -224 440 -280 126 -82 158 -98 210 -106 28 -5 100 -20 160
-34 203 -46 380 -83 384 -80 2 2 -12 19 -30 39 -19 19 -95 98 -169 177 -74 78
-157 166 -185 194 -27 28 -117 121 -200 206 -450 465 -377 400 -684 607 -95
64 -186 124 -201 132 -15 8 -47 30 -71 48 -24 18 -80 56 -124 86 -85 56 -351
236 -474 320 -41 28 -81 56 -90 61 -8 6 -51 35 -94 65 -43 30 -94 64 -113 76
-19 11 -44 29 -57 40 -12 10 -44 34 -72 52 -81 52 -85 55 -144 100 -141 107
-246 196 -306 258 -145 150 -203 229 -277 376 -26 54 -48 102 -48 108 0 5 -12
49 -27 97 -23 79 -26 105 -27 248 -1 168 10 234 57 355 29 75 85 188 111 225
11 16 26 37 31 46 18 31 152 183 191 219 80 72 161 139 237 194 54 40 75 61
69 69 -5 7 -19 39 -32 72 -13 33 -27 65 -30 70 -4 6 -11 26 -15 45 -4 19 -11
40 -15 45 -4 6 -17 37 -28 70 -12 33 -42 112 -68 175 -25 63 -53 133 -61 155
-8 22 -27 67 -43 100 -15 33 -29 65 -31 70 -20 56 -126 214 -191 286 -76 83
-255 193 -383 233 -42 14 -259 48 -275 44 -3 0 -43 -4 -90 -8z m-21 -347 c-54
-59 -72 -80 -107 -125 -20 -27 -41 -48 -48 -48 -7 0 -39 13 -72 30 -34 16 -96
46 -139 66 -43 20 -72 38 -65 41 21 8 383 61 421 62 l35 1 -25 -27z"/>
  </g>
  <g transform="translate(0.000000,727.000000) scale(0.100000,-0.100000)" fill="#0970EB" stroke="none">
    <path d="M6894 6894 c-76 -42 -166 -93 -199 -114 -33 -20 -141 -86 -240 -146
-174 -104 -311 -189 -425 -262 -150 -97 -804 -533 -940 -628 -85 -59 -191
-132 -235 -162 -101 -69 -371 -261 -580 -411 -88 -63 -189 -135 -224 -160
-109 -78 -591 -440 -686 -514 -405 -319 -564 -495 -637 -704 -56 -161 -38
-357 48 -528 38 -75 106 -185 114 -185 3 1 29 37 58 80 129 192 278 313 1047
853 138 96 268 188 290 205 22 16 93 67 158 113 66 46 143 102 173 124 30 22
92 67 137 100 593 430 971 740 1283 1050 219 218 349 372 534 635 147 207 476
717 468 725 -2 3 -67 -30 -144 -71z"/><path d="M5975 4952 c-16 -10 -59 -34 -95 -54 -284 -156 -683 -387 -1123 -652
-148 -88 -276 -165 -285 -171 -108 -64 -165 -100 -457 -289 -521 -337 -847
-600 -963 -775 -23 -35 -42 -67 -42 -71 0 -4 41 -44 91 -90 l90 -83 141 68
c77 37 165 78 197 92 441 194 854 409 1095 569 48 32 105 70 125 83 54 36 227
168 301 230 250 209 452 428 650 701 269 370 330 460 313 460 -5 0 -21 -8 -38
-18z"/><path d="M4930 3305 c-19 -8 -132 -50 -250 -94 -118 -44 -291 -110 -385 -146
-93 -37 -226 -88 -295 -114 -130 -50 -512 -207 -590 -243 -24 -11 -55 -24 -68
-29 -13 -5 -22 -14 -20 -20 2 -6 66 -60 143 -120 l140 -109 115 0 c204 0 409
72 604 211 79 56 292 259 443 421 160 171 223 242 223 249 0 12 -19 10 -60 -6z"/>
  </g>
</svg>
