<svg xmlns="http://www.w3.org/2000/svg" width="1200" height="630" viewBox="0 0 1200 630">
  <defs>
    <radialGradient id="glow" cx="18%" cy="42%" r="60%">
      <stop offset="0%" stop-color="#c9892c" stop-opacity="0.22"/>
      <stop offset="100%" stop-color="#0f1115" stop-opacity="0"/>
    </radialGradient>
    <linearGradient id="gold" x1="0" y1="0" x2="1" y2="1">
      <stop offset="0%" stop-color="#e6bd6f"/>
      <stop offset="100%" stop-color="#c9892c"/>
    </linearGradient>
  </defs>

  <rect width="1200" height="630" fill="#0f1115"/>
  <rect width="1200" height="630" fill="url(#glow)"/>
  <rect x="0" y="0" width="1200" height="6" fill="url(#gold)"/>

  <!-- Raven mark -->
  <g transform="translate(150,175) scale(1.9)">
    <g transform="translate(0,125.4) scale(0.01,-0.01)" fill="url(#gold)">
      <path d="M8250 10283 c-293 -39 -577 -176 -794 -384 -159 -151 -282 -337 -382 -574 -135 -321 -354 -879 -347 -885 4 -4 31 -15 58 -25 94 -34 290 -137 400 -210 310 -207 526 -478 630 -789 51 -152 66 -236 72 -397 7 -172 -6 -298 -47 -458 -78 -311 -203 -518 -415 -690 -140 -114 -242 -177 -960 -598 -187 -110 -428 -252 -535 -315 -278 -164 -1327 -779 -1881 -1102 l-207 -121 -761 -749 c-418 -412 -760 -751 -758 -752 1 -1 220 42 487 96 l486 97 249 145 c138 80 430 250 650 378 220 129 623 364 895 522 399 233 828 468 854 468 2 0 7 -54 11 -120 8 -119 8 -121 39 -147 81 -68 1036 -927 1036 -932 0 -3 -64 -40 -142 -81 -194 -102 -583 -315 -693 -379 l-90 -53 60 6 c144 14 575 37 865 46 604 19 1693 11 1988 -16 l67 -6 -25 22 c-51 43 -308 160 -470 214 -177 58 -461 132 -735 190 -93 20 -180 40 -191 44 -12 4 -195 207 -407 452 l-385 445 547 550 c885 889 1077 1091 1303 1367 396 482 607 859 713 1273 45 174 59 296 58 500 0 246 -31 400 -152 775 -103 317 -119 418 -86 544 67 258 261 403 623 467 112 20 157 23 382 21 174 -1 304 -7 408 -19 83 -10 152 -17 152 -15 0 11 -36 85 -62 127 -119 189 -290 331 -552 456 -195 93 -407 157 -727 219 -44 8 -68 21 -115 61 -129 110 -287 201 -449 259 -164 58 -242 71 -445 75 -102 2 -201 1 -220 -2z m628 -513 c150 -22 279 -40 287 -40 21 0 19 -17 -2 -23 -10 -3 -102 -43 -206 -90 l-187 -86 -118 136 c-64 74 -119 139 -120 144 -2 6 13 7 35 4 21 -3 161 -24 311 -45z"/>
      <path d="M4169 5768 c-1291 -1294 -2346 -2354 -2345 -2355 4 -5 166 27 291 57 266 65 544 167 925 342 748 343 3244 1656 3955 2081 246 147 410 285 504 426 303 449 231 1007 -182 1397 -182 172 -437 311 -696 379 -51 14 -96 25 -100 25 -3 0 -1062 -1059 -2352 -2352z"/>
    </g>
  </g>

  <!-- Wordmark + tagline -->
  <text x="470" y="250" font-family="DejaVu Sans, Arial, sans-serif" font-size="120" font-weight="700" fill="#fafaf7" letter-spacing="1">Kravn</text>
  <text x="474" y="320" font-family="DejaVu Sans, Arial, sans-serif" font-size="44" font-weight="600" fill="#c9892c">The enterprise MCP gateway</text>
  <text x="474" y="378" font-family="DejaVu Sans, Arial, sans-serif" font-size="28" fill="#8a929c">Self-hosted · SSO / SCIM / RBAC · no data egress</text>
  <!-- CTA -->
  <rect x="474" y="498" width="250" height="60" rx="14" fill="url(#gold)"/>
  <text x="599" y="537" font-family="DejaVu Sans, Arial, sans-serif" font-size="27" font-weight="700" fill="#0f1115" text-anchor="middle">Get started →</text>
  <text x="752" y="537" font-family="DejaVu Sans, Arial, sans-serif" font-size="27" font-weight="600" fill="#8a929c">kravn.ai</text>
</svg>
